<svg width="12" height="13" viewBox="0 0 12 13" fill="none" xmlns="http://www.w3.org/2000/svg">
<path d="M10.72 3.97588H8.87943C8.92976 3.68828 9.1095 3.52291 9.469 3.34316L9.80692 3.17061C10.4109 2.86144 10.7344 2.50914 10.7344 1.93394C10.7344 1.35875 10.5978 1.28685 10.3174 1.08553C10.0442 0.877026 9.71346 0.776367 9.3252 0.776367C8.93695 0.776367 8.74282 0.855456 8.48398 1.01363C8.23233 1.17181 8.0454 1.37313 7.93036 1.61759L8.46241 2.14964C8.67092 1.73262 8.96571 1.52412 9.36115 1.52412C9.7566 1.52412 9.90039 1.69668 9.90039 1.93394C9.90039 2.17121 9.79974 2.30063 9.41867 2.49476L9.20297 2.6026C8.72844 2.83987 8.40489 3.11309 8.21076 3.42944C8.02383 3.73861 7.93036 4.13405 7.93036 4.6014V4.73082H10.72V3.96869V3.97588Z" fill="#FF492C"/>
<path d="M10.4756 5.62207H7.42712L5.90286 8.26077H8.95138L10.4756 10.8995L11.9999 8.26077L10.4756 5.62207Z" fill="#FF492C"/>
<path d="M6.16157 10.0227C4.22029 10.0227 2.63851 8.44092 2.63851 6.49964C2.63851 4.55837 4.22029 2.97659 6.16157 2.97659L7.36947 0.452929C6.98122 0.37384 6.57858 0.337891 6.16157 0.337891C2.76074 0.337891 -0.000183105 3.09882 -0.000183105 6.49964C-0.000183105 9.90047 2.76074 12.6614 6.16157 12.6614C9.5624 12.6614 8.77151 12.2228 9.79247 11.4822L8.45515 9.1671C7.83682 9.69915 7.03874 10.0227 6.16157 10.0227Z" fill="#FF492C"/>
</svg>
