<svg width="59" height="17" viewBox="0 0 59 17" fill="none" xmlns="http://www.w3.org/2000/svg">
<g clip-path="url(#clip0_2884_30257)">
<path d="M5.26007 0L0 2.97205V14.2942L3.11358 16.6765V4.71755L5.26007 3.51457L7.40655 4.71755V7.1235L5.80258 8.01983V11.558L10.5201 8.86899V2.97205L5.26007 0Z" fill="#7737FF"/>
<path d="M13.4619 11.8379V2.43289H16.782C17.4048 2.43289 17.9519 2.55072 18.4232 2.78637C18.8945 3.02202 19.2606 3.35866 19.5215 3.7963C19.7908 4.23394 19.9254 4.74732 19.9254 5.33645C19.9254 5.92558 19.7908 6.43896 19.5215 6.8766C19.2606 7.30582 18.8945 7.64246 18.4232 7.88653C17.9603 8.12218 17.4132 8.24 16.782 8.24H14.699V11.8379H13.4619ZM14.699 7.10383H16.8199C17.1986 7.10383 17.5268 7.03229 17.8046 6.88922C18.0823 6.74615 18.2969 6.53995 18.4484 6.27064C18.5999 6.00132 18.6756 5.68992 18.6756 5.33645C18.6756 4.97456 18.5999 4.66316 18.4484 4.40226C18.2969 4.13294 18.0823 3.92675 17.8046 3.78368C17.5268 3.6406 17.1986 3.56907 16.8199 3.56907H14.699V7.10383ZM21.4597 11.8379V2.2814H22.6337V11.8379H21.4597ZM27.6872 11.9894C27.0308 11.9894 26.4374 11.8379 25.9072 11.5349C25.377 11.2235 24.9562 10.7985 24.6448 10.2599C24.3334 9.72124 24.1777 9.11107 24.1777 8.42937C24.1777 7.74766 24.3292 7.1417 24.6322 6.61149C24.9436 6.08127 25.3644 5.66047 25.8946 5.34907C26.4248 5.03768 27.0224 4.88198 27.6872 4.88198C28.3437 4.88198 28.937 5.03768 29.4672 5.34907C29.9974 5.65205 30.414 6.06865 30.717 6.59886C31.0284 7.12908 31.1841 7.73925 31.1841 8.42937C31.1841 9.11949 31.0242 9.73386 30.7044 10.2725C30.3846 10.8027 29.9596 11.2235 29.4294 11.5349C28.9076 11.8379 28.3268 11.9894 27.6872 11.9894ZM27.6872 10.8532C28.108 10.8532 28.4868 10.748 28.8234 10.5376C29.1685 10.3272 29.4378 10.0368 29.6313 9.66654C29.8333 9.29623 29.9343 8.88384 29.9343 8.42937C29.9343 7.96648 29.8333 7.5583 29.6313 7.20482C29.4378 6.84293 29.1685 6.55678 28.8234 6.34638C28.4868 6.12756 28.108 6.01815 27.6872 6.01815C27.258 6.01815 26.8709 6.12756 26.5258 6.34638C26.1892 6.55678 25.9198 6.84293 25.7179 7.20482C25.5159 7.5583 25.4149 7.96648 25.4149 8.42937C25.4149 8.88384 25.5159 9.29623 25.7179 9.66654C25.9198 10.0368 26.1892 10.3272 26.5258 10.5376C26.8709 10.748 27.258 10.8532 27.6872 10.8532ZM35.3568 11.9136C34.6919 11.9136 34.1785 11.7243 33.8166 11.3455C33.4632 10.9668 33.2864 10.4324 33.2864 9.74228V6.15702H32.0493V5.03347H32.3018C32.6047 5.03347 32.8446 4.94089 33.0213 4.75574C33.1981 4.57058 33.2864 4.32652 33.2864 4.02354V3.46807H34.4605V5.03347H35.988V6.15702H34.4605V9.70441C34.4605 9.93164 34.4941 10.1294 34.5615 10.2977C34.6372 10.4661 34.7593 10.6007 34.9276 10.7017C35.0959 10.7943 35.3189 10.8406 35.5967 10.8406C35.6556 10.8406 35.7271 10.8364 35.8113 10.828C35.9038 10.8195 35.988 10.8111 36.0637 10.8027V11.8379C35.9543 11.8631 35.8323 11.88 35.6976 11.8884C35.563 11.9052 35.4494 11.9136 35.3568 11.9136ZM37.5974 11.8379V2.2814H38.7714V11.8379H37.5974ZM40.5932 11.8379V5.03347H41.7672V11.8379H40.5932ZM40.5932 3.94779V2.43289H41.7672V3.94779H40.5932ZM43.5889 11.8379V5.03347H44.7377V6.35901L44.5484 6.24539C44.7167 5.81617 44.986 5.48373 45.3563 5.24808C45.735 5.00401 46.1769 4.88198 46.6819 4.88198C47.17 4.88198 47.6034 4.99139 47.9821 5.21021C48.3693 5.42903 48.6723 5.73201 48.8911 6.11915C49.1183 6.50629 49.2319 6.94392 49.2319 7.43206V11.8379H48.0453V7.81078C48.0453 7.43206 47.9779 7.11225 47.8433 6.85135C47.7086 6.59045 47.515 6.38846 47.2626 6.24539C47.0185 6.0939 46.7366 6.01815 46.4167 6.01815C46.0969 6.01815 45.8108 6.0939 45.5583 6.24539C45.3142 6.38846 45.1207 6.59466 44.9776 6.86397C44.8345 7.12487 44.763 7.44047 44.763 7.81078V11.8379H43.5889ZM54.0427 11.9894C53.3863 11.9894 52.8013 11.8337 52.288 11.5223C51.7746 11.2109 51.3706 10.7859 51.076 10.2472C50.7815 9.7002 50.6342 9.09003 50.6342 8.41674C50.6342 7.73504 50.7773 7.12908 51.0634 6.59886C51.358 6.06865 51.7535 5.65205 52.2501 5.34907C52.7551 5.03768 53.3189 4.88198 53.9417 4.88198C54.4467 4.88198 54.8927 4.97456 55.2799 5.15971C55.6754 5.33645 56.0079 5.58052 56.2772 5.89191C56.5549 6.19489 56.7653 6.54416 56.9084 6.93972C57.0599 7.32686 57.1356 7.73083 57.1356 8.15164C57.1356 8.24421 57.1272 8.34941 57.1104 8.46724C57.102 8.57665 57.0894 8.68185 57.0725 8.78284H51.4926V7.77291H56.3908L55.8354 8.22738C55.9111 7.78974 55.869 7.39839 55.7091 7.05333C55.5492 6.70827 55.3136 6.43475 55.0022 6.23276C54.6908 6.03078 54.3373 5.92978 53.9417 5.92978C53.5462 5.92978 53.1843 6.03078 52.8561 6.23276C52.5278 6.43475 52.2711 6.72511 52.086 7.10383C51.9092 7.47414 51.8377 7.91598 51.8714 8.42937C51.8377 8.92592 51.9134 9.36356 52.0986 9.74228C52.2922 10.1126 52.5615 10.4029 52.9065 10.6133C53.26 10.8153 53.643 10.9163 54.0553 10.9163C54.5098 10.9163 54.8927 10.8111 55.2041 10.6007C55.5155 10.3903 55.768 10.121 55.9616 9.79278L56.9463 10.2977C56.8116 10.6091 56.6012 10.8953 56.3151 11.1562C56.0373 11.4087 55.7049 11.6107 55.3178 11.7621C54.939 11.9136 54.514 11.9894 54.0427 11.9894Z" fill="#080808"/>
</g>
<defs>
<clipPath id="clip0_2884_30257">
<rect width="58.4138" height="16.6765" fill="white"/>
</clipPath>
</defs>
</svg>
